<svg xmlns="http://www.w3.org/2000/svg" xmlns:xlink="http://www.w3.org/1999/xlink" width="299.517" height="264.771" viewBox="0 0 299.517 264.771">
  <defs>
    <linearGradient id="linear-gradient" x1="0.146" y1="0.854" x2="0.854" y2="0.146" gradientUnits="objectBoundingBox">
      <stop offset="0" stop-color="#31a1cc"/>
      <stop offset="1" stop-color="#0052ac"/>
    </linearGradient>
  </defs>
  <g id="Group_133" data-name="Group 133" transform="translate(-2088.511 -2616.077)">
    <path id="Path_818" data-name="Path 818" d="M2210.626,2868.214a109.823,109.823,0,1,1,158.517-98.342" fill="none" stroke="#aabcdc" stroke-miterlimit="10" stroke-width="7.211"/>
    <circle id="Ellipse_50" data-name="Ellipse 50" cx="73.144" cy="73.144" r="73.144" transform="translate(2186.253 2696.851)" fill="url(#linear-gradient)"/>
    <g id="Group_121" data-name="Group 121">
      <g id="Group_117" data-name="Group 117">
        <g id="Group_115" data-name="Group 115">
          <path id="Path_819" data-name="Path 819" d="M2241.091,2761.953l1.4-2.069a.394.394,0,1,0-.653-.441l-1.442,2.136a6.6,6.6,0,0,0-5.466,0l-1.442-2.136a.394.394,0,1,0-.653.441l1.4,2.069a6.587,6.587,0,0,0-3.138,5.1h13.14A6.584,6.584,0,0,0,2241.091,2761.953Zm-6.113,3.108a.92.92,0,1,1,.919-.92A.92.92,0,0,1,2234.978,2765.061Zm5.363,0a.92.92,0,1,1,.92-.92A.92.92,0,0,1,2240.341,2765.061Z" fill="#fff"/>
          <path id="Path_820" data-name="Path 820" d="M2230.989,2769.824v7.6a1.086,1.086,0,0,0,1.084,1.084h1.792v1.774a1.117,1.117,0,0,0,2.234,0v-1.774h3.153v1.774a1.117,1.117,0,0,0,2.234,0v-1.774h1.559a1.087,1.087,0,0,0,1.084-1.084v-9.208h-13.14Z" fill="#fff"/>
          <path id="Path_821" data-name="Path 821" d="M2228.616,2768.214a1.3,1.3,0,0,0-1.291,1.291v4.251a1.291,1.291,0,0,0,2.582,0V2769.5A1.3,1.3,0,0,0,2228.616,2768.214Z" fill="#fff"/>
          <path id="Path_822" data-name="Path 822" d="M2246.7,2768.214a1.294,1.294,0,0,0-1.29,1.291v4.251a1.29,1.29,0,1,0,2.581,0V2769.5A1.3,1.3,0,0,0,2246.7,2768.214Z" fill="#fff"/>
        </g>
        <g id="Group_116" data-name="Group 116">
          <path id="Path_823" data-name="Path 823" d="M2250.541,2740.064h-25.762a7.353,7.353,0,0,0-7.354,7.354V2791.6a11.765,11.765,0,0,0,11.766,11.766h16.937a11.765,11.765,0,0,0,11.766-11.766v-44.178A7.353,7.353,0,0,0,2250.541,2740.064Zm-12.881,59.494a1.816,1.816,0,1,1,1.816-1.816A1.815,1.815,0,0,1,2237.66,2799.558Zm-4.67-56.727h9.338a.951.951,0,1,1,0,1.9h-9.338a.951.951,0,0,1,0-1.9Zm-11.414,48.765v-42.712h32.168V2791.6a7.661,7.661,0,0,1-.133,1.389h-31.9A7.652,7.652,0,0,1,2221.576,2791.6Z" fill="#fff"/>
        </g>
      </g>
      <g id="Group_120" data-name="Group 120">
        <g id="Group_118" data-name="Group 118">
          <path id="Path_824" data-name="Path 824" d="M2294.014,2740.064h-25.762a7.354,7.354,0,0,0-7.354,7.354V2791.6a11.766,11.766,0,0,0,11.766,11.766H2289.6a11.766,11.766,0,0,0,11.766-11.766v-44.178A7.353,7.353,0,0,0,2294.014,2740.064Zm-12.881,59.494a1.816,1.816,0,1,1,1.816-1.816A1.816,1.816,0,0,1,2281.133,2799.558Zm-4.67-56.727h9.339a.951.951,0,0,1,0,1.9h-9.339a.951.951,0,0,1,0-1.9Zm-11.414,48.765v-42.712h32.168V2791.6a7.574,7.574,0,0,1-.133,1.389h-31.9A7.674,7.674,0,0,1,2265.049,2791.6Z" fill="#fff"/>
        </g>
        <g id="Group_119" data-name="Group 119">
          <path id="Path_825" data-name="Path 825" d="M2290.311,2775.245a12.056,12.056,0,0,1-1.509,3.1c-.907,1.327-1.85,2.65-3.334,2.677-1.458.027-1.927-.865-3.593-.865s-2.19.838-3.569.892c-1.432.054-2.524-1.435-3.439-2.755-1.87-2.705-3.3-7.643-1.379-10.973a5.327,5.327,0,0,1,4.506-2.731c1.407-.027,2.733.945,3.594.945s2.473-1.169,4.169-1a5.092,5.092,0,0,1,3.983,2.16,4.933,4.933,0,0,0-2.354,4.145,4.809,4.809,0,0,0,2.925,4.406Zm-5.666-12.5a4.788,4.788,0,0,0,1.134-3.477,4.861,4.861,0,0,0-3.209,1.65,4.558,4.558,0,0,0-1.155,3.367,4.042,4.042,0,0,0,3.23-1.54Z" fill="#fff"/>
        </g>
      </g>
    </g>
    <circle id="Ellipse_51" data-name="Ellipse 51" cx="10.362" cy="10.362" r="10.362" transform="translate(2204.724 2860.124)" fill="#7e9aca"/>
    <circle id="Ellipse_52" data-name="Ellipse 52" cx="10.362" cy="10.362" r="10.362" transform="translate(2358.781 2759.633)" fill="#7e9aca"/>
    <circle id="Ellipse_53" data-name="Ellipse 53" cx="26.376" cy="26.376" r="26.376" transform="translate(2147.259 2815.467)" fill="#0065b7"/>
    <circle id="Ellipse_54" data-name="Ellipse 54" cx="26.376" cy="26.376" r="26.376" transform="translate(2327.654 2685.759)" fill="#0065b7"/>
    <g id="Group_123" data-name="Group 123">
      <circle id="Ellipse_55" data-name="Ellipse 55" cx="26.376" cy="26.376" r="26.376" transform="translate(2251.456 2635.039)" fill="#0065b7"/>
      <g id="Group_122" data-name="Group 122">
        <path id="Path_826" data-name="Path 826" d="M2270.8,2660.947l2.357-3.623s-3.521-1.4-5.161-.145-3.184,4.727-3.184,4.727l1.749,1.014S2268.777,2658.632,2270.8,2660.947Z" fill="#fff"/>
        <path id="Path_827" data-name="Path 827" d="M2277.262,2667.406l3.623-2.357s1.4,3.521.145,5.161-4.728,3.183-4.728,3.183l-1.013-1.748S2279.577,2669.432,2277.262,2667.406Z" fill="#fff"/>
        <path id="Path_828" data-name="Path 828" d="M2274.553,2666.368l-.622-.621a2.283,2.283,0,1,1-1.469-1.47l-.622-.621c-1.639-.283-3.73,1.7-4.07,3.617a28.744,28.744,0,0,0-.4,3.56,28.446,28.446,0,0,0,3.561-.4C2272.858,2670.1,2274.836,2668.007,2274.553,2666.368Z" fill="#fff"/>
        <path id="Path_829" data-name="Path 829" d="M2288.618,2649.59c-2.565-1.2-9.06,1.046-12.672,5.837-2.752,3.649-4.226,6.108-4.226,6.108l2.187,2.186.58.581,2.186,2.185s2.46-1.472,6.109-4.224C2287.571,2658.65,2289.82,2652.155,2288.618,2649.59Zm-10.864,10.864a1.545,1.545,0,1,1,2.186,0A1.545,1.545,0,0,1,2277.754,2660.454Zm3.624-3.623a2,2,0,1,1,2.825,0A2,2,0,0,1,2281.378,2656.831Z" fill="#fff"/>
      </g>
    </g>
    <g id="Group_124" data-name="Group 124">
      <path id="Path_830" data-name="Path 830" d="M2364.068,2720.736l-.177-1.023a2.812,2.812,0,0,0-1.639-2.048l-3.723-1.711c-.457-.21-.588-.872-.6-.908a.237.237,0,0,0-.213-.1h-.01a.221.221,0,0,0-.186.155l-.43,1.508-2.684,4.871-2.678-4.855-.436-1.524a.233.233,0,0,0-.22-.157.227.227,0,0,0-.2.127,1.339,1.339,0,0,1-.589.879l-3.724,1.711a2.817,2.817,0,0,0-1.639,2.048l-.177,1.023a1.321,1.321,0,0,0,.411,1.245c.045.034.1.083.172.147.686.608,2.771,2.458,9.081,2.458s8.4-1.85,9.08-2.458c.072-.063.128-.113.173-.147A1.319,1.319,0,0,0,2364.068,2720.736Z" fill="#fff"/>
      <path id="Path_831" data-name="Path 831" d="M2356.179,2705.779c.9,1.694,2.138,4.013,2.677,4.35l.1.064.375-2.929a4.468,4.468,0,0,0-1.165-3.429,5.248,5.248,0,0,0-7.528,0,4.47,4.47,0,0,0-1.165,3.432l.341,2.9.114-.125a6.559,6.559,0,0,1,1.2-.863,13.4,13.4,0,0,0,4.576-4.287C2355.839,2705.142,2356,2705.445,2356.179,2705.779Z" fill="#fff"/>
      <path id="Path_832" data-name="Path 832" d="M2346.92,2711.487a.578.578,0,0,0,.563.445.568.568,0,0,0,.136-.017l.976-.234a.58.58,0,0,0,.405-.359l.04,0-.018-.074a.583.583,0,0,0,0-.269l-.509-2.107a11.669,11.669,0,0,1-.184-1.867,6.074,6.074,0,0,1,12.148,0,11.393,11.393,0,0,1-.193,1.891l-.5,2.083a.506.506,0,0,0-.013.095l-.02.045a3.821,3.821,0,0,1-2.771,1.881.623.623,0,0,0-.55-.327h-1.26a.626.626,0,0,0-.625.625v.493a.626.626,0,0,0,.625.625h1.26a.628.628,0,0,0,.586-.412,5.357,5.357,0,0,0,2.572-1.148,4.412,4.412,0,0,0,.947-1.1l.654.156a.571.571,0,0,0,.136.017.578.578,0,0,0,.563-.445l.5-2.083a.581.581,0,0,0-.428-.7l-.361-.087a11.906,11.906,0,0,0,.129-1.61,7.325,7.325,0,0,0-14.65,0,11.906,11.906,0,0,0,.129,1.61l-.361.087a.58.58,0,0,0-.428.7Z" fill="#fff"/>
    </g>
    <g id="Group_125" data-name="Group 125">
      <rect id="Rectangle_219" data-name="Rectangle 219" width="1.738" height="2.781" transform="translate(2174.601 2838.161)" fill="#fff"/>
      <rect id="Rectangle_220" data-name="Rectangle 220" width="1.738" height="4.52" transform="translate(2177.729 2836.423)" fill="#fff"/>
      <rect id="Rectangle_221" data-name="Rectangle 221" width="1.738" height="6.258" transform="translate(2180.859 2834.684)" fill="#fff"/>
      <path id="Path_833" data-name="Path 833" d="M2185.3,2832.631v-1.043h-5.91v-1.043H2178v1.043h-5.91v1.043h.347v6.479h.7v-6.479h11.125v10.43h-11.125v-1.175h-.7v1.175h-.347v1.043h6.268v2.741l-2.383,4.55a.686.686,0,1,0,.756.68.678.678,0,0,0-.123-.391l1.75-3.341v3.409h.7v-3.326l1.716,3.277a.678.678,0,0,0-.111.372.687.687,0,1,0,.734-.682l-2.339-4.465V2844.1h6.247v-1.043h-.348v-10.43Z" fill="#fff"/>
      <path id="Path_834" data-name="Path 834" d="M2167.57,2835.209a1.767,1.767,0,1,0-1.767-1.767A1.767,1.767,0,0,0,2167.57,2835.209Z" fill="#fff"/>
      <path id="Path_835" data-name="Path 835" d="M2174.333,2840.609a.775.775,0,0,0-.775-.776h-1.437l-.443-2.338a2.022,2.022,0,0,0-1.788-1.788h-4.642a1.987,1.987,0,0,0-1.787,1.788v5.938a.775.775,0,0,0,1.55,0v-4.882h.357V2851.8a1.019,1.019,0,0,0,2.037,0v-7.692h.329v7.692a1.019,1.019,0,0,0,2.037,0v-13.254h.357l.316,2.022a.959.959,0,0,0,.947.81h2.167A.775.775,0,0,0,2174.333,2840.609Z" fill="#fff"/>
    </g>
    <g id="Group_129" data-name="Group 129">
      <circle id="Ellipse_56" data-name="Ellipse 56" cx="26.376" cy="26.376" r="26.376" transform="translate(2163.46 2656.678)" fill="#0065b7"/>
      <g id="Group_128" data-name="Group 128">
        <g id="Group_126" data-name="Group 126">
          <path id="Path_836" data-name="Path 836" d="M2195.1,2671.136h-7.888l-.4.4-5.542,5.542-.4.4v11.994a3.7,3.7,0,0,0,3.7,3.7H2195.1a3.7,3.7,0,0,0,3.7-3.7v-14.641A3.7,3.7,0,0,0,2195.1,2671.136Zm2.327,18.338a2.327,2.327,0,0,1-2.327,2.327h-10.536a2.328,2.328,0,0,1-2.328-2.327v-11.427h3.6a1.94,1.94,0,0,0,1.94-1.939v-3.6h7.321a2.328,2.328,0,0,1,2.327,2.328v14.641Z" fill="#fff"/>
        </g>
        <g id="Group_127" data-name="Group 127">
          <path id="Path_837" data-name="Path 837" d="M2193.351,2678.522c-2.228,1.238-4.484,4.759-4.484,4.759l-2.035-2.311-1.211,1.156,2.943,3.658,1.073-.041a18.064,18.064,0,0,1,4.415-6.891Z" fill="#fff"/>
        </g>
      </g>
    </g>
    <g id="Group_132" data-name="Group 132">
      <circle id="Ellipse_57" data-name="Ellipse 57" cx="26.376" cy="26.376" r="26.376" transform="translate(2123.273 2731.784)" fill="#0065b7"/>
      <g id="Group_131" data-name="Group 131">
        <g id="Group_130" data-name="Group 130">
          <path id="Path_838" data-name="Path 838" d="M2159.2,2748.487h-19.108v11.738H2159.2Zm-1.877,9.86h-15.353v-7.982h15.353Z" fill="#fff"/>
          <path id="Path_839" data-name="Path 839" d="M2158.891,2761.635h-18.483l-2.8,2.633v1.515h24.088v-1.515Zm-11.633,2.389.46-.735h3.862l.46.735Z" fill="#fff"/>
        </g>
        <text id="_" data-name="&lt;/&gt;" transform="translate(2144.776 2755.956)" fill="#fff" font-size="5.283" font-family="HiraginoSans-W3, Hiragino Sans" letter-spacing="0.05em"><tspan x="0" y="0">&lt;/&gt;</tspan></text>
      </g>
    </g>
    <text id="Plan" transform="translate(2118.884 2821.857)" font-size="10.816" font-family="HiraginoSans-W3, Hiragino Sans" letter-spacing="0.1em"><tspan x="0" y="0">Plan</tspan></text>
    <text id="Develop" transform="translate(2088.511 2724.586)" font-size="10.816" font-family="HiraginoSans-W3, Hiragino Sans" letter-spacing="0.1em"><tspan x="0" y="0">Develop</tspan></text>
    <text id="Test" transform="translate(2174.228 2649.271)" font-size="10.816" font-family="HiraginoSans-W3, Hiragino Sans" letter-spacing="0.1em"><tspan x="0" y="0">Test</tspan></text>
    <text id="Launch" transform="translate(2251.781 2626.077)" font-size="10.816" font-family="HiraginoSans-W3, Hiragino Sans" letter-spacing="0.1em"><tspan x="0" y="0">Launch</tspan></text>
    <text id="Support" transform="translate(2337.028 2678.522)" font-size="10.816" font-family="HiraginoSans-W3, Hiragino Sans" letter-spacing="0.1em"><tspan x="0" y="0">Support</tspan></text>
  </g>
</svg>
