<svg xmlns="http://www.w3.org/2000/svg" xmlns:xlink="http://www.w3.org/1999/xlink" width="179.961" height="179.961" viewBox="0 0 179.961 179.961">
  <defs>
    <linearGradient id="linear-gradient" x1="0.5" y1="1" x2="0.5" gradientUnits="objectBoundingBox">
      <stop offset="0" stop-color="#31a1cc"/>
      <stop offset="1" stop-color="#0052ac"/>
    </linearGradient>
  </defs>
  <g id="Group_448" data-name="Group 448" transform="translate(-1572.481 -1576.01)">
    <g id="Group_447" data-name="Group 447">
      <g id="Group_443" data-name="Group 443">
        <g id="Group_444" data-name="Group 444">
          <g id="Group_446" data-name="Group 446">
            <circle id="Ellipse_39" data-name="Ellipse 39" cx="89.98" cy="89.98" r="89.98" transform="translate(1572.481 1576.01)" fill="url(#linear-gradient)"/>
            <g id="Group_100" data-name="Group 100">
              <path id="Path_793" data-name="Path 793" d="M1671.661,1667.371a5.576,5.576,0,0,1,2.18-2.335,75.022,75.022,0,0,0-15.466-23.747,5.515,5.515,0,0,1-5.072.694,72.887,72.887,0,0,0-7.347,10.582,7.79,7.79,0,0,1,2.482,5.7,7.886,7.886,0,0,1-.069.99A122.382,122.382,0,0,0,1671.661,1667.371Z" fill="#fff"/>
              <path id="Path_794" data-name="Path 794" d="M1677.033,1675.381c-.13.009-.259.019-.391.019-.075,0-.149-.008-.224-.011a88.732,88.732,0,0,1-13.811,19.143,32.88,32.88,0,0,0,15.919-8.5A67.64,67.64,0,0,0,1677.033,1675.381Z" fill="#fff"/>
              <path id="Path_795" data-name="Path 795" d="M1680.682,1666.019a5.54,5.54,0,0,1,1.515,3.643q2.6.489,5.361.938a33.062,33.062,0,0,0-2.307-22.788A77.687,77.687,0,0,1,1680.682,1666.019Z" fill="#fff"/>
              <path id="Path_796" data-name="Path 796" d="M1672.431,1673.465a5.543,5.543,0,0,1-.985-1.655,128.663,128.663,0,0,1-24.841-8.516,7.8,7.8,0,0,1-5.985,2.792c-.2,0-.405-.015-.6-.03a75.663,75.663,0,0,0-3.569,23.041,32.8,32.8,0,0,0,19.2,6.178l.076,0A85.549,85.549,0,0,0,1672.431,1673.465Z" fill="#fff"/>
              <path id="Path_797" data-name="Path 797" d="M1681.189,1673.905a74.248,74.248,0,0,1,1.289,7.544,32.884,32.884,0,0,0,3.683-6.666Q1683.611,1674.361,1681.189,1673.905Z" fill="#fff"/>
              <path id="Path_798" data-name="Path 798" d="M1636.133,1651.871a7.761,7.761,0,0,1,5.949-1.28,77.217,77.217,0,0,1,8.025-11.543,5.523,5.523,0,0,1,.271-5.119c-1.736-1.393-3.205-2.451-4.263-3.174a33.025,33.025,0,0,0-17.773,13.089A33.413,33.413,0,0,0,1636.133,1651.871Z" fill="#fff"/>
              <path id="Path_799" data-name="Path 799" d="M1660.331,1634.682a5.521,5.521,0,0,1,.4,2.065c0,.176-.01.349-.026.52a78.563,78.563,0,0,1,16.711,24.805c.548-1.585,1.02-3.1,1.41-4.508a67.613,67.613,0,0,0,2.505-15.9,32.986,32.986,0,0,0-16.138-10.9A55.108,55.108,0,0,0,1660.331,1634.682Z" fill="#fff"/>
              <path id="Path_800" data-name="Path 800" d="M1635.938,1664.519a7.8,7.8,0,0,1-2.559-9.193,40.517,40.517,0,0,1-7.444-7.3,32.978,32.978,0,0,0,6.247,37.435A79.181,79.181,0,0,1,1635.938,1664.519Z" fill="#fff"/>
              <path id="Path_801" data-name="Path 801" d="M1654.14,1631.283a5.617,5.617,0,0,1,1.029-.1,5.539,5.539,0,0,1,2.1.414c.833-.753,1.609-1.418,2.32-2.005a32.229,32.229,0,0,0-7.633-.032C1652.641,1630.081,1653.371,1630.654,1654.14,1631.283Z" fill="#fff"/>
            </g>
          </g>
        </g>
      </g>
    </g>
  </g>
</svg>
