<svg xmlns="http://www.w3.org/2000/svg" width="48.964" height="53.69" viewBox="0 0 48.964 53.69">
  <g id="Group_99" data-name="Group 99" transform="translate(-1753.473 -1969.825)">
    <path id="Path_780" data-name="Path 780" d="M1783.48,1993.119a3.41,3.41,0,0,1,1.336-1.431,45.992,45.992,0,0,0-9.476-14.549,3.384,3.384,0,0,1-3.107.426,44.6,44.6,0,0,0-4.5,6.483,4.771,4.771,0,0,1,1.521,3.494,4.658,4.658,0,0,1-.043.606A74.955,74.955,0,0,0,1783.48,1993.119Z" fill="#0065b7"/>
    <path id="Path_781" data-name="Path 781" d="M1786.771,1998.026c-.08.006-.159.012-.239.012-.047,0-.092-.005-.138-.007a54.385,54.385,0,0,1-8.461,11.729,20.152,20.152,0,0,0,9.753-5.21A41.459,41.459,0,0,0,1786.771,1998.026Z" fill="#0065b7"/>
    <path id="Path_782" data-name="Path 782" d="M1789.935,1994.523q1.591.3,3.284.574a20.256,20.256,0,0,0-1.413-13.961,47.531,47.531,0,0,1-2.8,11.155A3.389,3.389,0,0,1,1789.935,1994.523Z" fill="#0065b7"/>
    <path id="Path_783" data-name="Path 783" d="M1783.348,1995.839a78.841,78.841,0,0,1-15.219-5.218,4.78,4.78,0,0,1-3.667,1.711c-.125,0-.248-.009-.371-.019a46.375,46.375,0,0,0-2.187,14.117,20.1,20.1,0,0,0,11.764,3.785h.047a52.417,52.417,0,0,0,10.236-13.361A3.425,3.425,0,0,1,1783.348,1995.839Z" fill="#0065b7"/>
    <path id="Path_784" data-name="Path 784" d="M1790.107,2001.744a20.189,20.189,0,0,0,2.256-4.084q-1.562-.259-3.046-.538A45.524,45.524,0,0,1,1790.107,2001.744Z" fill="#0065b7"/>
    <path id="Path_785" data-name="Path 785" d="M1765.357,1982.838a47.344,47.344,0,0,1,4.918-7.072,3.384,3.384,0,0,1,.165-3.136c-1.063-.853-1.963-1.5-2.612-1.944a20.236,20.236,0,0,0-10.889,8.018,20.509,20.509,0,0,0,4.774,4.919,4.756,4.756,0,0,1,3.644-.785Z" fill="#0065b7"/>
    <path id="Path_786" data-name="Path 786" d="M1776.768,1974.675a48.117,48.117,0,0,1,10.238,15.2c.336-.971.625-1.9.864-2.761a41.463,41.463,0,0,0,1.535-9.743,20.22,20.22,0,0,0-9.887-6.68,33.868,33.868,0,0,0-2.98,2.4,3.4,3.4,0,0,1,.246,1.266C1776.784,1974.464,1776.778,1974.57,1776.768,1974.675Z" fill="#0065b7"/>
    <path id="Path_787" data-name="Path 787" d="M1759.672,1987.542a4.764,4.764,0,0,1,.354-1.8,24.807,24.807,0,0,1-4.561-4.475,20.2,20.2,0,0,0,3.827,22.935,48.456,48.456,0,0,1,2.3-12.827A4.778,4.778,0,0,1,1759.672,1987.542Z" fill="#0065b7"/>
    <path id="Path_788" data-name="Path 788" d="M1773.375,1970.948a3.4,3.4,0,0,1,1.288.254c.51-.462.986-.869,1.421-1.228a19.753,19.753,0,0,0-4.676-.02c.418.319.866.67,1.337,1.055A3.434,3.434,0,0,1,1773.375,1970.948Z" fill="#0065b7"/>
    <path id="Path_789" data-name="Path 789" d="M1799.573,2012.438l1.361-.307,1.361-2.239-.615-.614-.614-.615-2.239,1.361-.307,1.36-2.509,2.515,1.075,1.032Z" fill="#0065b7"/>
    <path id="Path_790" data-name="Path 790" d="M1788.337,2020.166a1.736,1.736,0,0,0,2.455,2.454l3.678-3.666-2.455-2.454Z" fill="#0065b7"/>
    <path id="Path_791" data-name="Path 791" d="M1801.993,2020.962l-.041-.039-7.151-6.865a2.32,2.32,0,0,1-.461-1.49,4.471,4.471,0,0,0-.236-1.9,4.3,4.3,0,0,0-2.977-2.373c-.1-.02-.175-.028-.24.032l-.333.261a.21.21,0,0,0-.027.276l1.373,1.864a.209.209,0,0,1,.037.151l-.063.482a.213.213,0,0,1-.077.136l-1.027.871a.208.208,0,0,1-.126.046l-.532-.039a.211.211,0,0,1-.176-.086l-1.466-1.906a.211.211,0,0,0-.313-.03l-.255.209a.27.27,0,0,0-.1.216,3.466,3.466,0,0,0,1.194,3.556c1.385,1.257,3.064.453,3.913,1.208l6.895,7.454c.025.029.051.058.079.085a1.5,1.5,0,1,0,2.115-2.115Z" fill="#0065b7"/>
  </g>
</svg>
