<svg xmlns="http://www.w3.org/2000/svg" xmlns:xlink="http://www.w3.org/1999/xlink" width="305.796" height="298.775" viewBox="0 0 305.796 298.775">
  <defs>
    <linearGradient id="linear-gradient" x1="0.146" y1="0.854" x2="0.854" y2="0.146" gradientUnits="objectBoundingBox">
      <stop offset="0" stop-color="#31a1cc"/>
      <stop offset="1" stop-color="#0052ac"/>
    </linearGradient>
  </defs>
  <g id="Group_171" data-name="Group 171" transform="translate(-2064.793 -4285.753)">
    <g id="Group_163" data-name="Group 163">
      <g id="Group_162" data-name="Group 162">
        <path id="Path_853" data-name="Path 853" d="M2205.192,4441.881a2,2,0,0,1-1.415-.586l-15.362-15.324a2,2,0,0,1,1.415-3.421h30.725a2,2,0,0,1,1.415,3.421l-15.364,15.324A1.993,1.993,0,0,1,2205.192,4441.881Zm-10.518-15.323,10.518,10.489,10.519-10.489Z" fill="#ff7c00"/>
        <path id="Path_854" data-name="Path 854" d="M2205.192,4474.259a2,2,0,0,1-2-2v-47.7a2,2,0,1,1,4.007,0v47.7A2,2,0,0,1,2205.192,4474.259Z" fill="#ff7c00"/>
      </g>
      <rect id="Rectangle_244" data-name="Rectangle 244" width="7.129" height="25.834" transform="translate(2215.51 4447.737)" fill="#ff7c00"/>
      <rect id="Rectangle_245" data-name="Rectangle 245" width="7.129" height="31.973" transform="translate(2226.984 4441.6)" fill="#ff7c00"/>
      <rect id="Rectangle_246" data-name="Rectangle 246" width="7.129" height="38.818" transform="translate(2238.458 4434.754)" fill="#ff7c00"/>
    </g>
    <rect id="Rectangle_247" data-name="Rectangle 247" width="12.129" height="53.063" transform="translate(2210.196 4345.936)" fill="#ffd2a8"/>
    <rect id="Rectangle_248" data-name="Rectangle 248" width="12.129" height="53.063" transform="matrix(0.309, -0.951, 0.951, 0.309, 2119.121, 4424.186)" fill="#ffd2a8"/>
    <rect id="Rectangle_249" data-name="Rectangle 249" width="12.129" height="53.063" transform="matrix(-0.809, -0.588, 0.588, -0.809, 2165.398, 4534.983)" fill="#ffd2a8"/>
    <rect id="Rectangle_250" data-name="Rectangle 250" width="12.129" height="53.063" transform="matrix(-0.809, 0.588, -0.588, -0.809, 2285.073, 4525.209)" fill="#ffd2a8"/>
    <rect id="Rectangle_251" data-name="Rectangle 251" width="12.129" height="53.063" transform="matrix(0.309, 0.951, -0.951, 0.309, 2312.759, 4408.372)" fill="#ffd2a8"/>
    <circle id="Ellipse_69" data-name="Ellipse 69" cx="44.63" cy="44.63" r="44.63" transform="translate(2171.231 4285.753)" fill="url(#linear-gradient)"/>
    <g id="Group_164" data-name="Group 164">
      <path id="Path_855" data-name="Path 855" d="M2207.823,4318.938h2.74v-4.359h-2.74v4.359Z" fill="#fff"/>
      <path id="Path_856" data-name="Path 856" d="M2212.556,4318.938h2.74v-4.359h-2.74v4.359Z" fill="#fff"/>
      <path id="Path_857" data-name="Path 857" d="M2217.29,4318.938h2.74v-4.359h-2.74v4.359Z" fill="#fff"/>
      <path id="Path_858" data-name="Path 858" d="M2222.023,4318.938h2.74v-4.359h-2.74v4.359Z" fill="#fff"/>
      <path id="Path_859" data-name="Path 859" d="M2207.823,4332.225h2.74v-4.359h-2.74v4.359Z" fill="#fff"/>
      <path id="Path_860" data-name="Path 860" d="M2212.556,4332.225h2.74v-4.359h-2.74v4.359Z" fill="#fff"/>
      <path id="Path_861" data-name="Path 861" d="M2217.29,4332.225h2.74v-4.359h-2.74v4.359Z" fill="#fff"/>
      <path id="Path_862" data-name="Path 862" d="M2222.023,4332.225h2.74v-4.359h-2.74v4.359Z" fill="#fff"/>
      <path id="Path_863" data-name="Path 863" d="M2227.073,4340.27a1.2,1.2,0,1,1,1.2-1.2,1.2,1.2,0,0,1-1.2,1.2Zm-2.31-4.024h-2.74v-.923h2.74v.923Zm-1.075,11.619h-15.081v-5.573h15.081v5.573Zm-15.865-12.542h2.74v.923h-2.74v-.923Zm7.474,0v.923h-2.741v-.923Zm4.733,0v.923h-2.74v-.923Zm-14.68-9.268h21.595v7.98H2205.35v-7.98Zm5.213-4.019v.923h-2.74v-.923Zm4.734,0v.923h-2.741v-.923Zm4.733,0v.923h-2.74v-.923Zm4.733,0v.923h-2.74v-.923Zm-19.413-9.268h21.595v7.98H2205.35v-7.98Zm-3.964-3.726v42.994H2231.2v-42.994Z" fill="#fff"/>
      <path id="Path_864" data-name="Path 864" d="M2226.918,4339.883h.324v-1.55h-.324v1.55Z" fill="#fff"/>
    </g>
    <g id="Group_166" data-name="Group 166">
      <circle id="Ellipse_70" data-name="Ellipse 70" cx="44.63" cy="44.63" r="44.63" transform="translate(2107.928 4495.269)" fill="url(#linear-gradient)"/>
      <g id="Group_165" data-name="Group 165">
        <path id="Path_865" data-name="Path 865" d="M2173.015,4545.982l-3.128-.455a.516.516,0,0,1-.44-.32l-1.014-2.447a.514.514,0,0,1,.084-.537l1.872-2.514a.879.879,0,0,0-.047-1.192l-1.481-1.48a.875.875,0,0,0-1.191-.047l-2.515,1.871a.517.517,0,0,1-.537.085l-2.448-1.014a.525.525,0,0,1-.32-.44l-.454-3.128a.877.877,0,0,0-.875-.81h-2.094a.876.876,0,0,0-.875.81l-.455,3.128a.519.519,0,0,1-.319.44l-2.449,1.014a.52.52,0,0,1-.538-.085l-2.513-1.871a.877.877,0,0,0-1.192.047l-1.48,1.48a.88.88,0,0,0-.047,1.192l1.871,2.515a.515.515,0,0,1,.085.536l-1.014,2.447a.519.519,0,0,1-.44.321l-3.129.454a.879.879,0,0,0-.809.876v2.093a.879.879,0,0,0,.809.876l3.129.454a.522.522,0,0,1,.44.32l1.014,2.448a.517.517,0,0,1-.085.537l-1.871,2.515a.879.879,0,0,0,.047,1.192l1.48,1.48a.877.877,0,0,0,1.192.046l2.513-1.871a.522.522,0,0,1,.538-.084l2.449,1.013a.525.525,0,0,1,.32.441l.454,3.128a.879.879,0,0,0,.875.811h2.094a.88.88,0,0,0,.876-.811l.453-3.128a.526.526,0,0,1,.321-.441l2.448-1.013a.52.52,0,0,1,.537.084l2.514,1.871a.876.876,0,0,0,1.191-.046l1.481-1.48a.879.879,0,0,0,.047-1.192l-1.872-2.515a.521.521,0,0,1-.084-.537l1.015-2.448a.521.521,0,0,1,.439-.32l3.128-.454a.878.878,0,0,0,.81-.876v-2.093A.878.878,0,0,0,2173.015,4545.982Zm-10.1,5.364a4.867,4.867,0,1,1,1.425-3.442A4.839,4.839,0,0,1,2162.915,4551.346Z" fill="#fff"/>
        <path id="Path_866" data-name="Path 866" d="M2146.782,4540.394a.689.689,0,0,0,.431-.831l-.5-2.427a.412.412,0,0,1,.119-.411l1.537-1.4a.407.407,0,0,1,.418-.08l2.353.712a.688.688,0,0,0,.867-.35l.7-1.486a.686.686,0,0,0-.282-.891l-2.047-1.358a.406.406,0,0,1-.2-.374l.1-2.075a.41.41,0,0,1,.239-.353l2.188-1.167a.687.687,0,0,0,.365-.86l-.556-1.546a.689.689,0,0,0-.831-.43l-2.428.494a.4.4,0,0,1-.41-.118l-1.4-1.536a.4.4,0,0,1-.08-.419l.712-2.351a.687.687,0,0,0-.351-.867l-1.485-.7a.688.688,0,0,0-.892.282l-1.357,2.048a.409.409,0,0,1-.374.206l-2.075-.1a.408.408,0,0,1-.354-.239l-1.166-2.188a.687.687,0,0,0-.861-.364l-1.545.556a.686.686,0,0,0-.43.829l.5,2.43a.405.405,0,0,1-.12.409l-1.536,1.4a.411.411,0,0,1-.42.08l-2.351-.713a.69.69,0,0,0-.867.351l-.7,1.485a.689.689,0,0,0,.281.892l2.048,1.358a.4.4,0,0,1,.2.373l-.1,2.075a.406.406,0,0,1-.239.353l-2.188,1.167a.686.686,0,0,0-.365.86l.556,1.545a.69.69,0,0,0,.83.432l2.429-.5a.408.408,0,0,1,.41.12l1.4,1.536a.408.408,0,0,1,.081.42l-.713,2.351a.69.69,0,0,0,.352.867l1.484.7a.69.69,0,0,0,.893-.282l1.356-2.048a.407.407,0,0,1,.375-.2l2.075.1a.409.409,0,0,1,.354.24l1.165,2.186a.692.692,0,0,0,.861.367Zm-3.291-6.72a3.815,3.815,0,1,1,2.16-1.965A3.792,3.792,0,0,1,2143.491,4533.674Z" fill="#fff"/>
      </g>
    </g>
    <g id="Group_168" data-name="Group 168">
      <circle id="Ellipse_71" data-name="Ellipse 71" cx="44.63" cy="44.63" r="44.63" transform="translate(2244.115 4492.156)" fill="url(#linear-gradient)"/>
      <g id="Group_167" data-name="Group 167">
        <path id="Path_867" data-name="Path 867" d="M2275.51,4551.558a1.582,1.582,0,1,1,1.581-1.582,1.584,1.584,0,0,1-1.581,1.582Zm27.332,0a1.582,1.582,0,1,1,1.581-1.582,1.584,1.584,0,0,1-1.581,1.582Zm-31.36-19.244h5.8v5.961h-6.472l.673-5.961Zm7.97-3.285H2271.2a1.983,1.983,0,0,0-1.982,1.981l-1.519,15.537h-.8v3.528h5.1a3.519,3.519,0,0,0,7.035,0h20.3a3.519,3.519,0,0,0,7.036,0h3.075v-3.528h-.669v-1.7h-29.314v-15.815Z" fill="#fff"/>
        <path id="Path_868" data-name="Path 868" d="M2310.594,4522.46h-29.683v20.923h29.683V4522.46Z" fill="#fff"/>
      </g>
    </g>
    <circle id="Ellipse_72" data-name="Ellipse 72" cx="44.63" cy="44.63" r="44.63" transform="translate(2281.329 4367.162)" fill="url(#linear-gradient)"/>
    <g id="Group_169" data-name="Group 169">
      <path id="Path_869" data-name="Path 869" d="M2332.618,4408.8h-6.769v-4.7h6.769v4.7Zm1.881-6.586h-10.532v8.468H2334.5v-8.468Z" fill="#fff"/>
      <path id="Path_870" data-name="Path 870" d="M2333.336,4421.006h-14.8v-1.056h14.8v1.056Zm-16.679-2.938v4.819h18.561v-4.819Z" fill="#fff"/>
      <path id="Path_871" data-name="Path 871" d="M2320.517,4408.8h-1.259v-4.7h1.259v4.7Zm1.882-6.586h-5.023v8.468h5.023v-8.468Z" fill="#fff"/>
      <path id="Path_872" data-name="Path 872" d="M2326.1,4413.971h6.272v-1.882H2326.1v1.882Z" fill="#fff"/>
      <path id="Path_873" data-name="Path 873" d="M2322.943,4396.473c-.046-.21-.105-.524-.15-.738h-.009c-.046.214-.1.537-.146.738l-.159.705h.619l-.155-.705Z" fill="#fff"/>
      <path id="Path_874" data-name="Path 874" d="M2314.728,4432.474v-6.9h22.419v6.9Zm0-15.21h22.419v6.428h-22.419v-6.428Zm22.419-16.936v15.054h-22.419v-15.054Zm-14.837-5.244h1.016l.9,3.52h-.829l-.2-.82h-.811l-.191.82h-.811l.929-3.52Zm1.957,0h2.4v.7h-.806v2.819h-.8v-2.819h-.8v-.7Zm2.934,0h.979l.283,1.138c.1.419.2.847.268,1.261h.019c.073-.4.173-.855.277-1.265l.3-1.134h.965l.2,3.52h-.756l-.05-1.257c-.018-.373-.037-.842-.032-1.307h-.014c-.091.424-.214.9-.309,1.239l-.346,1.261h-.606l-.314-1.252c-.087-.337-.187-.815-.26-1.248h-.013c-.014.437-.037.934-.055,1.311l-.06,1.253h-.719l.241-3.52Zm-14.355-1.715v40.986h26.183v-40.986Z" fill="#fff"/>
    </g>
    <circle id="Ellipse_73" data-name="Ellipse 73" cx="44.63" cy="44.63" r="44.63" transform="translate(2064.793 4372.198)" fill="url(#linear-gradient)"/>
    <g id="Group_170" data-name="Group 170">
      <path id="Path_875" data-name="Path 875" d="M2105.811,4429.325a.456.456,0,0,1,.456-.457h6.782a.457.457,0,0,1,.457.457v9.814h-.914v-9.357h-5.868v9.357h-.913v-9.814Zm-6.078-4.722h3.406a.138.138,0,0,1,.138.137v2a.137.137,0,0,1-.138.137h-3.406a.137.137,0,0,1-.137-.137v-2a.137.137,0,0,1,.137-.137Zm0-4.076h3.406a.138.138,0,0,1,.138.138v2a.138.138,0,0,1-.138.137h-3.406a.137.137,0,0,1-.137-.137v-2a.137.137,0,0,1,.137-.138Zm0-4.074h3.406a.138.138,0,0,1,.138.138v2a.138.138,0,0,1-.138.137h-3.406a.137.137,0,0,1-.137-.137v-2a.137.137,0,0,1,.137-.138Zm0-4.074h3.406a.138.138,0,0,1,.138.138v2a.138.138,0,0,1-.138.138h-3.406a.137.137,0,0,1-.137-.138v-2a.137.137,0,0,1,.137-.138Zm0-4.075h3.406a.138.138,0,0,1,.138.137v2a.138.138,0,0,1-.138.138h-3.406a.137.137,0,0,1-.137-.138v-2a.137.137,0,0,1,.137-.137Zm-.137-6.01v-2a.137.137,0,0,1,.137-.137h3.406a.138.138,0,0,1,.138.137v2a.138.138,0,0,1-.138.137h-3.406a.137.137,0,0,1-.137-.137Zm.137,1.935h3.406a.138.138,0,0,1,.138.137v2a.137.137,0,0,1-.138.137h-3.406a.137.137,0,0,1-.137-.137v-2a.137.137,0,0,1,.137-.137Zm-.454,26.99v-.913h4.32v.913Zm4.32,3.656v.914h-4.32v-.914Zm-4.32-1.371v-.914h4.32v.914Zm9.339-31.073h-3.406a.137.137,0,0,1-.137-.137v-2a.137.137,0,0,1,.137-.137h3.406a.138.138,0,0,1,.138.137v2a.138.138,0,0,1-.138.137Zm0,4.075h-3.406a.137.137,0,0,1-.137-.137v-2a.137.137,0,0,1,.137-.137h3.406a.138.138,0,0,1,.138.137v2a.137.137,0,0,1-.138.137Zm0,4.075h-3.406a.137.137,0,0,1-.137-.138v-2a.137.137,0,0,1,.137-.137h3.406a.138.138,0,0,1,.138.137v2a.138.138,0,0,1-.138.138Zm0,4.075h-3.406a.137.137,0,0,1-.137-.138v-2a.137.137,0,0,1,.137-.138h3.406a.138.138,0,0,1,.138.138v2a.138.138,0,0,1-.138.138Zm0,4.074h-3.406a.137.137,0,0,1-.137-.137v-2a.137.137,0,0,1,.137-.138h3.406a.138.138,0,0,1,.138.138v2a.138.138,0,0,1-.138.137Zm.138,6.01v2a.137.137,0,0,1-.138.137h-3.406a.137.137,0,0,1-.137-.137v-2a.137.137,0,0,1,.137-.137h3.406a.138.138,0,0,1,.138.137Zm-.138-1.935h-3.406a.137.137,0,0,1-.137-.137v-2a.137.137,0,0,1,.137-.138h3.406a.138.138,0,0,1,.138.138v2a.138.138,0,0,1-.138.137Zm7.552,1.8h3.407a.138.138,0,0,1,.138.137v2a.137.137,0,0,1-.138.137h-3.407a.136.136,0,0,1-.136-.137v-2a.136.136,0,0,1,.136-.137Zm0-4.076h3.407a.138.138,0,0,1,.138.138v2a.138.138,0,0,1-.138.137h-3.407a.137.137,0,0,1-.136-.137v-2a.137.137,0,0,1,.136-.138Zm0-4.074h3.407a.138.138,0,0,1,.138.138v2a.138.138,0,0,1-.138.137h-3.407a.137.137,0,0,1-.136-.137v-2a.137.137,0,0,1,.136-.138Zm0-4.074h3.407a.138.138,0,0,1,.138.138v2a.138.138,0,0,1-.138.138h-3.407a.137.137,0,0,1-.136-.138v-2a.137.137,0,0,1,.136-.138Zm0-4.075h3.407a.138.138,0,0,1,.138.137v2a.138.138,0,0,1-.138.138h-3.407a.137.137,0,0,1-.136-.138v-2a.137.137,0,0,1,.136-.137Zm-.136-6.01v-2a.136.136,0,0,1,.136-.137h3.407a.138.138,0,0,1,.138.137v2a.138.138,0,0,1-.138.137h-3.407a.136.136,0,0,1-.136-.137Zm.136,1.935h3.407a.138.138,0,0,1,.138.137v2a.137.137,0,0,1-.138.137h-3.407a.136.136,0,0,1-.136-.137v-2a.136.136,0,0,1,.136-.137Zm3.867,26.99h-4.32v-.913h4.32v.913Zm-4.32,2.285v-.914h4.32v.914Zm4.32,1.371v.914h-4.32v-.914Zm-9.345-10.272h3.406a.138.138,0,0,1,.138.137v2a.137.137,0,0,1-.138.137h-3.406a.137.137,0,0,1-.137-.137v-2a.137.137,0,0,1,.137-.137Zm0-4.076h3.406a.138.138,0,0,1,.138.138v2a.138.138,0,0,1-.138.137h-3.406a.137.137,0,0,1-.137-.137v-2a.137.137,0,0,1,.137-.138Zm0-4.074h3.406a.138.138,0,0,1,.138.138v2a.138.138,0,0,1-.138.137h-3.406a.137.137,0,0,1-.137-.137v-2a.137.137,0,0,1,.137-.138Zm0-4.074h3.406a.138.138,0,0,1,.138.138v2a.138.138,0,0,1-.138.138h-3.406a.137.137,0,0,1-.137-.138v-2a.137.137,0,0,1,.137-.138Zm0-4.075h3.406a.138.138,0,0,1,.138.137v2a.138.138,0,0,1-.138.138h-3.406a.137.137,0,0,1-.137-.138v-2a.137.137,0,0,1,.137-.137Zm-.137-6.01v-2a.137.137,0,0,1,.137-.137h3.406a.138.138,0,0,1,.138.137v2a.138.138,0,0,1-.138.137h-3.406a.137.137,0,0,1-.137-.137Zm.137,1.935h3.406a.138.138,0,0,1,.138.137v2a.137.137,0,0,1-.138.137h-3.406a.137.137,0,0,1-.137-.137v-2a.137.137,0,0,1,.137-.137Zm14.3,34.91h-2.15v-42.462a.457.457,0,0,0-.457-.457h-25.454a.456.456,0,0,0-.457.457v42.462h-2.15v1.775h30.668v-1.775Z" fill="#fff"/>
    </g>
  </g>
</svg>
